<svg width="15" height="16" viewBox="0 0 15 16" fill="none" xmlns="http://www.w3.org/2000/svg">
<path d="M5.71436 13.3571H9.28578" stroke="white" stroke-width="1.5" stroke-linecap="round" stroke-linejoin="round"/>
<path d="M3.49337 7.10716C3.49337 6.58099 3.59701 6.05998 3.79836 5.57386C3.99972 5.08775 4.29485 4.64605 4.66691 4.274C5.03896 3.90194 5.48066 3.60681 5.96677 3.40546C6.45289 3.2041 6.9739 3.10046 7.50007 3.10046C8.02623 3.10046 8.54725 3.2041 9.03336 3.40546C9.51948 3.60681 9.96117 3.90194 10.3332 4.274C10.7053 4.64605 11.0004 5.08775 11.2018 5.57386C11.4031 6.05998 11.5068 6.58099 11.5068 7.10716V7.10716C11.5068 9.10493 11.9253 10.2656 12.2936 10.9018C12.3327 10.9696 12.3533 11.0464 12.3534 11.1246C12.3535 11.2029 12.333 11.2797 12.294 11.3476C12.255 11.4154 12.1989 11.4718 12.1312 11.511C12.0636 11.5503 11.9868 11.5712 11.9085 11.5714H3.09158C3.01335 11.5712 2.93657 11.5503 2.86892 11.511C2.80127 11.4718 2.74514 11.4154 2.70615 11.3476C2.66715 11.2797 2.64666 11.2029 2.64673 11.1246C2.6468 11.0464 2.66742 10.9696 2.70654 10.9018C3.07484 10.2656 3.49337 9.10493 3.49337 7.10716Z" stroke="white" stroke-width="1.5" stroke-linecap="round" stroke-linejoin="round"/>
<path d="M10.5916 2.19644C11.5005 2.77022 12.2341 3.58298 12.7121 4.54577" stroke="white" stroke-width="1.5" stroke-linecap="round" stroke-linejoin="round"/>
<path d="M2.28796 4.54577C2.76593 3.58298 3.49954 2.77022 4.4085 2.19644" stroke="white" stroke-width="1.5" stroke-linecap="round" stroke-linejoin="round"/>
</svg>
