<svg width="15" height="16" viewBox="0 0 15 16" fill="none" xmlns="http://www.w3.org/2000/svg">
<path d="M7.49998 10.6786C8.97932 10.6786 10.1786 9.47935 10.1786 8.00001C10.1786 6.52068 8.97932 5.32144 7.49998 5.32144C6.02065 5.32144 4.82141 6.52068 4.82141 8.00001C4.82141 9.47935 6.02065 10.6786 7.49998 10.6786Z" stroke="white" stroke-width="1.5" stroke-linecap="round" stroke-linejoin="round"/>
<path d="M11.3728 5.3605C11.5071 5.55284 11.6248 5.75634 11.7244 5.96876L13.1697 6.77233C13.3501 7.58063 13.352 8.41858 13.1752 9.22769L11.7244 10.0313C11.6248 10.2437 11.5071 10.4472 11.3728 10.6395L11.4007 12.2969C10.7882 12.8551 10.0632 13.2756 9.27458 13.5301L7.85159 12.6764C7.61751 12.6931 7.38254 12.6931 7.14846 12.6764L5.73105 13.5246C4.93993 13.2746 4.21258 12.8557 3.59936 12.2969L3.62726 10.6451C3.49404 10.4501 3.37648 10.2448 3.27569 10.0313L1.83038 9.22769C1.64991 8.41939 1.64801 7.58145 1.8248 6.77233L3.27569 5.96876C3.37529 5.75634 3.49291 5.55284 3.62726 5.3605L3.59936 3.70314C4.21188 3.14497 4.93684 2.72446 5.72547 2.46988L7.14846 3.32367C7.38254 3.30693 7.61751 3.30693 7.85159 3.32367L9.269 2.47546C10.0601 2.7254 10.7875 3.14429 11.4007 3.70314L11.3728 5.3605Z" stroke="white" stroke-width="1.5" stroke-linecap="round" stroke-linejoin="round"/>
</svg>
