<svg width="16" height="16" viewBox="0 0 16 16" fill="none" xmlns="http://www.w3.org/2000/svg">
<path fill-rule="evenodd" clip-rule="evenodd" d="M8.47135 1.52869C8.34634 1.40371 8.1768 1.3335 8.00002 1.3335C7.82324 1.3335 7.65371 1.40371 7.52869 1.52869L6.19535 2.86202C6.10215 2.95526 6.03868 3.07403 6.01297 3.20333C5.98725 3.33263 6.00045 3.46666 6.0509 3.58846C6.10135 3.71026 6.18678 3.81437 6.29638 3.88762C6.40599 3.96088 6.53485 3.99999 6.66669 4.00002H7.33335V7.33335H4.00002V6.66669C3.99999 6.53485 3.96088 6.40599 3.88762 6.29638C3.81437 6.18678 3.71026 6.10135 3.58846 6.0509C3.46666 6.00045 3.33263 5.98725 3.20333 6.01297C3.07403 6.03868 2.95526 6.10215 2.86202 6.19535L1.52869 7.52869C1.40371 7.65371 1.3335 7.82324 1.3335 8.00002C1.3335 8.1768 1.40371 8.34634 1.52869 8.47135L2.86202 9.80469C2.95526 9.89789 3.07403 9.96136 3.20333 9.98708C3.33263 10.0128 3.46666 9.99959 3.58846 9.94914C3.71026 9.89869 3.81437 9.81327 3.88762 9.70366C3.96088 9.59405 3.99999 9.46519 4.00002 9.33335V8.66669H7.33335V12H6.66669C6.53485 12 6.40599 12.0392 6.29638 12.1124C6.18678 12.1857 6.10135 12.2898 6.0509 12.4116C6.00045 12.5334 5.98725 12.6674 6.01297 12.7967C6.03868 12.926 6.10215 13.0448 6.19535 13.138L7.52869 14.4714C7.65371 14.5963 7.82324 14.6665 8.00002 14.6665C8.1768 14.6665 8.34634 14.5963 8.47135 14.4714L9.80469 13.138C9.89789 13.0448 9.96136 12.926 9.98708 12.7967C10.0128 12.6674 9.99959 12.5334 9.94914 12.4116C9.89869 12.2898 9.81327 12.1857 9.70366 12.1124C9.59405 12.0392 9.46519 12 9.33335 12H8.66669V8.66669H12V9.33335C12 9.46519 12.0392 9.59405 12.1124 9.70366C12.1857 9.81327 12.2898 9.89869 12.4116 9.94914C12.5334 9.99959 12.6674 10.0128 12.7967 9.98708C12.926 9.96136 13.0448 9.89789 13.138 9.80469L14.4714 8.47135C14.5963 8.34634 14.6665 8.1768 14.6665 8.00002C14.6665 7.82324 14.5963 7.65371 14.4714 7.52869L13.138 6.19535C13.0448 6.10215 12.926 6.03868 12.7967 6.01297C12.6674 5.98725 12.5334 6.00045 12.4116 6.0509C12.2898 6.10135 12.1857 6.18678 12.1124 6.29638C12.0392 6.40599 12 6.53485 12 6.66669V7.33335H8.66669V4.00002H9.33335C9.46519 3.99999 9.59405 3.96088 9.70366 3.88762C9.81327 3.81437 9.89869 3.71026 9.94914 3.58846C9.99959 3.46666 10.0128 3.33263 9.98708 3.20333C9.96136 3.07403 9.89789 2.95526 9.80469 2.86202L8.47135 1.52869Z" fill="white"/>
</svg>
