<svg width="15" height="15" viewBox="0 0 15 15" fill="none" xmlns="http://www.w3.org/2000/svg">
<path d="M1.47314 12.4108H5.491C6.06492 12.4108 6.62595 12.2406 7.10315 11.9217C7.58034 11.6029 7.95227 11.1497 8.1719 10.6194C8.39153 10.0892 8.449 9.50575 8.33703 8.94285C8.22506 8.37996 7.9487 7.86291 7.54287 7.45709C7.13705 7.05127 6.62 6.7749 6.05711 6.66294C5.49422 6.55097 4.91077 6.60844 4.38054 6.82806C3.8503 7.04769 3.39711 7.41962 3.07825 7.89682C2.7594 8.37402 2.58922 8.93505 2.58922 9.50896C2.58922 11.5179 1.47314 12.4108 1.47314 12.4108Z" fill="white"/>
<path d="M6.62939 6.8415C7.70082 5.39619 10.424 2.08704 12.9129 2.08704C12.9129 4.57588 9.60372 7.29909 8.15841 8.37052" stroke="white" stroke-linecap="round" stroke-linejoin="round"/>
<path d="M7.77905 5.41296C8.53518 5.83969 9.16036 6.46487 9.58709 7.221" stroke="white" stroke-linecap="round" stroke-linejoin="round"/>
</svg>
