<svg width="16" height="15" viewBox="0 0 16 15" fill="none" xmlns="http://www.w3.org/2000/svg">
<path d="M13.2232 8.69416C13.3158 8.28781 13.3608 7.87207 13.3572 7.45532C13.3348 4.50331 10.8907 2.11492 7.94422 2.14282C6.68548 2.15609 5.47162 2.6122 4.5156 3.43113C3.55958 4.25005 2.92248 5.37948 2.71607 6.62125C2.50967 7.86303 2.74714 9.13783 3.38682 10.222C4.02651 11.3061 5.02755 12.1304 6.21431 12.5502C6.41619 12.6229 6.63263 12.6459 6.84527 12.6171C7.0579 12.5883 7.26046 12.5086 7.43573 12.3848C7.611 12.261 7.75382 12.0968 7.85206 11.906C7.95029 11.7153 8.00105 11.5036 8.00003 11.289V11.0714C7.99929 10.8953 8.03342 10.7208 8.10047 10.558C8.16751 10.3952 8.26614 10.2472 8.39065 10.1227C8.51516 9.99822 8.66309 9.89959 8.82592 9.83255C8.98874 9.76551 9.16323 9.73137 9.33931 9.73211H11.9174C12.2204 9.7323 12.5145 9.62976 12.7517 9.44124C12.9888 9.25272 13.1551 8.98936 13.2232 8.69416V8.69416Z" fill="white"/>
<path d="M7.99972 5.26781C8.36955 5.26781 8.66936 4.968 8.66936 4.59817C8.66936 4.22834 8.36955 3.92853 7.99972 3.92853C7.62989 3.92853 7.33008 4.22834 7.33008 4.59817C7.33008 4.968 7.62989 5.26781 7.99972 5.26781Z" fill="#017BFF"/>
<path d="M7.99972 5.26781C8.36955 5.26781 8.66936 4.968 8.66936 4.59817C8.66936 4.22834 8.36955 3.92853 7.99972 3.92853C7.62989 3.92853 7.33008 4.22834 7.33008 4.59817C7.33008 4.968 7.62989 5.26781 7.99972 5.26781Z" stroke="white"/>
<path d="M5.48849 6.71874C5.85832 6.71874 6.15813 6.41893 6.15813 6.0491C6.15813 5.67926 5.85832 5.37946 5.48849 5.37946C5.11866 5.37946 4.81885 5.67926 4.81885 6.0491C4.81885 6.41893 5.11866 6.71874 5.48849 6.71874Z" fill="#017BFF"/>
<path d="M5.48849 9.62054C5.85832 9.62054 6.15813 9.32073 6.15813 8.95089C6.15813 8.58106 5.85832 8.28125 5.48849 8.28125C5.11866 8.28125 4.81885 8.58106 4.81885 8.95089C4.81885 9.32073 5.11866 9.62054 5.48849 9.62054Z" fill="#017BFF"/>
<path d="M10.511 6.71874C10.8808 6.71874 11.1806 6.41893 11.1806 6.0491C11.1806 5.67926 10.8808 5.37946 10.511 5.37946C10.1411 5.37946 9.84131 5.67926 9.84131 6.0491C9.84131 6.41893 10.1411 6.71874 10.511 6.71874Z" fill="#017BFF"/>
</svg>
